<?xml version="1.0" encoding="UTF-8"?>
<svg id="Layer_1" xmlns="http://www.w3.org/2000/svg" version="1.1" viewBox="0 0 346.24 108.02">
  <!-- Generator: Adobe Illustrator 30.6.0, SVG Export Plug-In . SVG Version: 2.1.4 Build 109)  -->
  <defs>
    <style>
      .st0 {
        fill: #2c2b29;
      }

      .st1 {
        fill: #ee7e1a;
      }
    </style>
  </defs>
  <g>
    <path class="st1" d="M272.56,48.22l.03,29.49-29.47-.18,5.66-1.39c7.17-1.76,12.77-11.64,12.85-19.59l.13-12.52,10.8,4.2Z"/>
    <g>
      <path class="st0" d="M107.9.47l25.06,74.12,1.01,3.09h-14.93s-4.11-11.86-4.11-11.86l-.85-2.61-5.33-.04h-28.42s-4.98,14.51-4.98,14.51h-15.4s10.68-31.98,10.68-31.98L85.61.47h22.29ZM110.72,51.92l-13.53-40.61-13.53,40.6h27.06Z"/>
      <path class="st1" d="M114.93,65.81c-.41.05-.76-.08-1.18-.28l-5-2.37,5.33.04.85,2.61Z"/>
    </g>
    <g>
      <path class="st1" d="M196.87,17.32l-.82,10.18v24.05c0,6.75,1.41,15.91,6.12,20.61,3.06,3.05,6.9,4.79,10.97,5.44l-21.28.11v-12.46s-36.61,0-36.61,0l.06-64.73,41.56,16.8Z"/>
      <polygon class="st0" points="60.38 .47 60.35 13.33 37.47 13.34 37.48 30.65 37.48 77.67 22.49 77.69 22.46 23.49 22.46 13.34 0 13.35 .02 .46 60.38 .47"/>
      <polygon class="st0" points="155.31 .51 155.25 65.24 191.85 65.24 191.86 77.7 140.24 77.69 140.2 .47 155.31 .51"/>
      <polygon class="st1" points="140.2 .47 140.24 77.69 132.96 74.58 107.9 .47 140.2 .47"/>
      <polygon class="st1" points="85.61 .47 70.62 45.69 37.48 30.65 37.47 13.34 60.35 13.33 60.38 .47 85.61 .47"/>
      <polygon class="st1" points="22.46 23.49 0 13.35 22.46 13.34 22.46 23.49"/>
      <path class="st1" d="M246.75,37.77v15.56c.01,2.25-.52,4.11-1.27,6.14-.79,2.17-2.06,3.83-4.39,4.69-1.74.64-3.71,1.19-5.65,1.32l-7.45.5-8.61-.58c-4.04-.27-6.92-3.06-7.67-6.91-.57-2.91-.68-5.7-.68-8.69v-11.18s-.02-7.61-.02-7.61l-.32-3.31c-.14-1.48.25-2.97.51-4.42l35.54,14.5Z"/>
      <polygon class="st1" points="110.72 51.92 83.66 51.91 97.19 11.3 110.72 51.92"/>
    </g>
    <g>
      <path class="st0" d="M344.04,77.69l-31.32-13.01-26.2-51.6.48,25.26.29,16.08.27,23.28h-14.99s-.03-29.49-.03-29.49l-.03-47.77h24.58s33.62,65.18,33.62,65.18l-1.1-65.18h14.95s0,76.55,0,76.55c.07.34-.09.52-.18.59-.08.06-.24.09-.35.09Z"/>
      <path class="st0" d="M261.76,44.02l-.13,12.52c-.08,7.95-5.68,17.83-12.85,19.59l-5.66,1.39c-2.45.6-4.96.51-7.64.68-7.58.49-14.98.34-22.35-.62-4.07-.65-7.92-2.39-10.97-5.44-4.71-4.7-6.11-13.86-6.11-20.61v-24.05s.82-10.18.82-10.18c.28-3.41,1.95-6.66,3.74-9.69.7-1.19,1.86-2.01,2.96-2.78,4.29-3.01,9.21-4.21,14.44-4.5,9.21-.51,21.37-.75,29.99,1.56,4.08,1.09,7.69,3.4,9.86,7.06,2.93,4.95,3.84,10,3.86,15.78l.06,19.28ZM211.22,23.27c-.26,1.44-.65,2.94-.51,4.42l.32,3.31.03,7.61v11.18c0,3,.1,5.79.67,8.69.75,3.84,3.63,6.64,7.67,6.91l8.61.58,7.45-.5c1.94-.13,3.91-.68,5.65-1.32,2.32-.86,3.59-2.52,4.39-4.69.74-2.03,1.28-3.89,1.28-6.14v-15.56s.02-9.5.02-9.5c.02-6.38-.43-13.39-7.17-14.76-7.15-1.45-14.54-1.33-21.69.13-2.19.45-4.21,1.37-5.07,3.46-.81,1.98-1.26,4.06-1.64,6.17Z"/>
      <polygon class="st1" points="312.73 64.69 344.04 77.69 319.64 77.7 287.58 77.71 287.31 54.43 312.73 64.69"/>
    </g>
  </g>
  <path class="st0" d="M226.39,107.95l-7.49-.02-9.92-18.79c.2,6.5.53,12.44.31,18.79l-4.53.02v-23.18s7.5-.03,7.5-.03l9.88,19.22-.3-19.22h4.55s0,23.21,0,23.21Z"/>
  <path class="st0" d="M62.83,107.95l-4.57-.02-.02-5.56c0-.81-.81-1.82-1.67-1.83l-7.87-.05v7.44s-4.56-.03-4.56-.03v-23.15s12.61.02,12.61.02c2.95,0,5.41,1.62,6.19,4.48.7,3.92.55,7.8-3.4,9.1,4.14.79,3.2,5.08,3.3,9.59ZM58.44,90.55c-.03-1-.73-1.66-1.63-1.66h-8.1s-.01,7.47-.01,7.47l8.55-.04c1.52-1.54,1.71-3.61,1.19-5.78Z"/>
  <path class="st0" d="M105.62,86.2c3.75,2.25,3.35,10.8,2.74,15.52-.45,3.52-2.98,6.07-6.53,6.11l-13.17.16v-23.23s11.34,0,11.34,0c2.02,0,3.9.44,5.62,1.44ZM103.92,100.75l.16-9.74c-.6-1.32-1.86-2.1-3.32-2.1h-7.92s.01,15.35.01,15.35h7.17c2.02.01,3.87-1.24,3.91-3.51Z"/>
  <polygon class="st0" points="260.96 107.85 256.39 107.96 256.36 98.02 245.56 98.02 245.52 107.96 240.97 107.93 240.97 84.74 245.56 84.73 245.56 94.27 256.36 94.27 256.37 84.74 260.94 84.74 260.96 107.85"/>
  <path class="st0" d="M199.36,106.56c-2.38,1.82-8.06,1.56-11.57,1.23-3.27-.31-5.46-2.79-5.45-5.98v-11.65c0-1.71,1.26-3.46,2.67-4.26,2.15-1.23,4.37-1.19,6.81-1.17,2.61.02,5.66-.07,7.72,1.8,1.8,1.63,2.3,4.53,2.29,6.86l-.06,7.67c-.01,1.92-.73,4.22-2.41,5.51ZM197.2,100.49v-8.46c0-1-.49-2.61-1.55-3-2.52-.92-5.6-.83-8.08.17-.78.31-.99,1.86-1,2.56l-.03,9.05c0,1.19.76,3.29,2.03,3.31l6.19.07c.85,0,2.43-1.66,2.43-3.7Z"/>
  <path class="st0" d="M323.16,107.66l-7.35.34c-2.14.1-4.3-.31-5.77-2.01-.72-.83-.74-2.14-.9-3.18l-.34-2.31,4.69.13c-.48,1.63,0,3.3,1.5,3.64,2.45.55,5.13.79,7.32-.62,1.46-.94,1.39-3.95.02-4.87-2.55-1.72-8.95.44-11.46-2.31-2.79-3.05-2.1-10.97,1.89-11.26l6.65-.48c2.14-.15,4.79.11,6.38,1.74,1.29,1.32,1.21,3.6,1.31,5.28h-4.66c.13-.91.3-2.52-.54-3.05-2.27-.26-4.96-.52-7.19.08-1.51.4-1.49,2.69-1.12,3.78.34,1.01.88,1.59,2.04,1.67l5.79.38c1.87.12,3.33.33,4.82,1.56.57.47,1.18.79,1.17,1.82l-.03,5.64c-.01,2.18-2.03,3.65-4.22,4.05Z"/>
  <path class="st0" d="M84.34,105.32c-.7,1.64-4.52,2.74-7.03,2.66l-5.94-.18c-3.13-.09-5.24-2.59-5.44-5.82-.23-3.78-.3-7.64.05-11.44.19-2.1,1.06-4.11,3.04-4.87.96-.37,2.12-.83,3.16-.87,3.59-.14,8.83-.48,11.12,1.58,1.04.93,1.93,2.57,1.94,4.01l.04,11.21c0,1.26-.46,2.6-.94,3.71ZM81.09,99.93v-8.11c0-3.62-4.24-3.61-8.02-3.19-1.53.17-2.67,1.22-2.67,2.83l-.03,9.98c0,1.22.75,2.75,2.1,2.74l6.13-.02c1.07,0,2.49-2,2.49-4.23Z"/>
  <path class="st0" d="M282.61,104.93c-.64,2.26-4.89,3.2-7.79,3.06-2.42-.12-4.96.25-7.26-.79-2.43-1.1-3.68-3.79-3.67-6.4l.03-7.67c0-2.7.5-5.57,2.52-6.96,2.19-1.5,4.76-1.45,7.31-1.47s5.27,0,7.49,1.55c1.52,1.06,2.14,3.13,2.14,4.97v10.38c0,1.14-.49,2.31-.77,3.32ZM276.8,104.11c1.39-.2,2.29-1.93,2.3-3.18l.04-9.32c0-1.73-1.35-2.88-2.97-3.04-3.72-.35-7.69-.3-7.7,2.93l-.03,9.9c0,1.25.75,2.62,2.19,2.75,1.94.17,4.05.26,6.17-.04Z"/>
  <path class="st0" d="M305.91,84.73l-.07,17.72c-.02,3.63-3.04,5.57-6.68,5.54l-7.41-.07c-1.07,0-2.59-.49-3.23-1.42-.88-1.28-1.71-2.97-1.72-4.57l-.1-17.15,4.58-.04.09,18.15c.08.84,1.66,1.32,2.34,1.33l5.16.04c1.56.01,2.74-1.11,2.75-2.76l.11-16.75h4.17Z"/>
  <path class="st0" d="M39.97,98.61c-1.16,1.59-3.72,1.9-5.48,1.9h-7.02s-.02,7.43-.02,7.43h-4.55s0-23.16,0-23.16h10.46c2.1,0,4.08.58,6.01,1.24,2.59,2.55,2.3,10.28.61,12.6ZM37.06,95.12c.02-1.7.06-3.19-.13-4.73-.33-1.06-1.39-1.54-2.48-1.53l-6.99.04v7.86s6.43-.05,6.43-.05c1.24-.13,2.48-.48,3.17-1.59Z"/>
  <path class="st0" d="M126.54,84.77l4.59-.04-.07,16.83c0,1.85-.55,3.85-2.06,5.01-.88.68-2.42,1.33-3.58,1.32l-8.97-.06c-2.72-.02-4.48-2.55-4.48-5.15l-.02-17.95h4.16s0,16.86,0,16.86c0,1.46,1.07,2.64,2.52,2.63l5.93-.03c.7-.13,1.3-.88,1.96-1.32l.02-18.11Z"/>
  <polygon class="st0" points="345.84 98.02 335.05 98.02 335.01 104.26 346.21 104.26 346.19 107.97 330.45 107.96 330.46 84.72 346.24 84.76 346.21 88.88 335.01 88.88 335.01 94.27 345.84 94.27 345.84 98.02"/>
  <path class="st0" d="M146.28,104.23c1.55.02,2.71-1.27,2.71-2.61v-1.93s4.16-.01,4.16-.01c.39,3.91-.68,8.19-4.53,8.18l-8.48-.03c-1.79,0-4.13-.86-4.94-2.58-.59-1.24-1.07-2.93-1.08-4.29l-.02-8.74c0-1.36.67-2.77,1.08-4.06.89-2.78,5.43-3.74,8.8-3.38,2.59-.2,5.15.05,7.43,1.2,1.61,1.9,1.94,4.32,1.71,6.68l-4.53-.03c-.07-1.02.19-2.11-.27-2.99-.79-1.49-6.22-1.59-8.92-.24-.46,1.02-.77,2.13-.77,3.27l.02,7.93c0,1.48.83,3.25,2.44,3.55l5.19.08Z"/>
  <polygon class="st0" points="165.64 107.85 161.07 107.92 161.07 88.9 154.47 88.89 154.41 84.73 172.3 84.73 172.26 88.88 165.64 88.9 165.64 107.85"/>
  <rect class="st0" x="165.03" y="94.05" width="23.26" height="4.6" transform="translate(80.29 273) rotate(-89.99)"/>
</svg>